<!-- icon666.com - MILLIONS vector ICONS FREE --><svg viewBox="0 -32 512 512" xmlns="http://www.w3.org/2000/svg"><path d="m512 300c0-62.40625-53.875-113.832031-122.453125-119.476562.292969-3.820313.453125-7.660157.453125-11.523438 0-45.589844-20.585938-88.308594-57.96875-120.292969-36.714844-31.410156-85.378906-48.707031-137.03125-48.707031s-100.316406 17.296875-137.03125 48.707031c-37.382812 31.984375-57.96875 74.703125-57.96875 120.292969 0 37.394531 14.363281 73.738281 40.625 103.222656l-25.699219 100.511719 100.992188-49.375c25.132812 9.71875 51.703125 14.640625 79.082031 14.640625 17.757812 0 35.164062-2.042969 51.851562-6.003906 15.890626 51.183594 68.859376 88.003906 130.148438 88.003906 18.125 0 35.734375-3.191406 52.453125-9.503906l75.007813 37.507812-19.109376-76.4375c17.242188-20.621094 26.648438-45.738281 26.648438-71.566406zm-390.808594-6.867188-6.296875-2.667968-54.820312 26.804687 13.746093-53.765625-5.929687-6.03125c-24.433594-24.875-37.890625-56.292968-37.890625-88.472656 0-76.644531 74.019531-139 165-139s165 62.355469 165 139-74.019531 139-165 139c-25.683594 0-50.515625-5.003906-73.808594-14.867188zm338.347656 98.867188-28.980468-14.488281-6.417969 2.777343c-14.871094 6.445313-30.734375 9.710938-47.140625 9.710938-48.132812 0-89.546875-28.058594-101.519531-66.96875 20.75-8.140625 39.882812-19.480469 56.550781-33.738281 25.828125-22.097657 43.632812-49.320313 52.175781-79.074219 54.546875 3.183594 97.792969 42.230469 97.792969 89.78125 0 20.742188-8.503906 41.019531-23.945312 57.097656l-5.746094 5.980469zm0 0"></path><path d="m240 150h30v30h-30zm0 0"></path><path d="m180 150h30v30h-30zm0 0"></path><path d="m120 150h30v30h-30zm0 0"></path></svg>