<svg width="22" height="22" viewBox="0 0 22 22" fill="none" xmlns="http://www.w3.org/2000/svg">
<path fill-rule="evenodd" clip-rule="evenodd" d="M14.3586 15.4194L6.58044 7.64124L7.6411 6.58058L15.4193 14.3588L14.3586 15.4194Z" fill="#3369F3"/>
<path fill-rule="evenodd" clip-rule="evenodd" d="M15.4193 7.64124L7.6411 15.4194L6.58044 14.3588L14.3586 6.58058L15.4193 7.64124Z" fill="#3369F3"/>
<path fill-rule="evenodd" clip-rule="evenodd" d="M11 20.5C16.2467 20.5 20.5 16.2467 20.5 11C20.5 5.75329 16.2467 1.5 11 1.5C5.75329 1.5 1.5 5.75329 1.5 11C1.5 16.2467 5.75329 20.5 11 20.5ZM11 22C17.0751 22 22 17.0751 22 11C22 4.92487 17.0751 0 11 0C4.92487 0 0 4.92487 0 11C0 17.0751 4.92487 22 11 22Z" fill="#3369F3"/>
</svg>
